<mxfile host="app.diagrams.net" agent="Mozilla/5.0 (Windows NT 10.0; Win64; x64) AppleWebKit/537.36 (KHTML, like Gecko) Chrome/128.0.0.0 Safari/537.36" version="24.7.11">
  <diagram id="C5RBs43oDa-KdzZeNtuy" name="Page-1">
    <mxGraphModel dx="1050" dy="522" grid="1" gridSize="10" guides="1" tooltips="1" connect="1" arrows="1" fold="1" page="1" pageScale="1" pageWidth="827" pageHeight="1169" math="0" shadow="0">
      <root>
        <mxCell id="WIyWlLk6GJQsqaUBKTNV-0" />
        <mxCell id="WIyWlLk6GJQsqaUBKTNV-1" parent="WIyWlLk6GJQsqaUBKTNV-0" />
        <mxCell id="e9ITBhB58Za4XSSi68RV-18" value="&lt;font style=&quot;font-size: 14px;&quot;&gt;dev&lt;/font&gt;" style="rounded=1;whiteSpace=wrap;html=1;" vertex="1" parent="WIyWlLk6GJQsqaUBKTNV-1">
          <mxGeometry x="330" y="60" width="80" height="30" as="geometry" />
        </mxCell>
        <mxCell id="e9ITBhB58Za4XSSi68RV-23" style="edgeStyle=orthogonalEdgeStyle;rounded=0;orthogonalLoop=1;jettySize=auto;html=1;exitX=0.5;exitY=0;exitDx=0;exitDy=0;entryX=0;entryY=0.5;entryDx=0;entryDy=0;" edge="1" parent="WIyWlLk6GJQsqaUBKTNV-1" source="e9ITBhB58Za4XSSi68RV-19" target="e9ITBhB58Za4XSSi68RV-22">
          <mxGeometry relative="1" as="geometry" />
        </mxCell>
        <mxCell id="e9ITBhB58Za4XSSi68RV-19" value="&lt;font style=&quot;font-size: 14px;&quot;&gt;hjx-dev&lt;/font&gt;" style="rounded=1;whiteSpace=wrap;html=1;" vertex="1" parent="WIyWlLk6GJQsqaUBKTNV-1">
          <mxGeometry x="80" y="220" width="80" height="30" as="geometry" />
        </mxCell>
        <mxCell id="e9ITBhB58Za4XSSi68RV-25" style="edgeStyle=orthogonalEdgeStyle;rounded=0;orthogonalLoop=1;jettySize=auto;html=1;exitX=0.5;exitY=0;exitDx=0;exitDy=0;entryX=1;entryY=0.5;entryDx=0;entryDy=0;" edge="1" parent="WIyWlLk6GJQsqaUBKTNV-1" source="e9ITBhB58Za4XSSi68RV-20" target="e9ITBhB58Za4XSSi68RV-22">
          <mxGeometry relative="1" as="geometry" />
        </mxCell>
        <mxCell id="e9ITBhB58Za4XSSi68RV-20" value="&lt;font style=&quot;font-size: 14px;&quot;&gt;zyn-dev&lt;/font&gt;" style="rounded=1;whiteSpace=wrap;html=1;" vertex="1" parent="WIyWlLk6GJQsqaUBKTNV-1">
          <mxGeometry x="580" y="220" width="80" height="30" as="geometry" />
        </mxCell>
        <mxCell id="e9ITBhB58Za4XSSi68RV-24" style="edgeStyle=orthogonalEdgeStyle;rounded=0;orthogonalLoop=1;jettySize=auto;html=1;exitX=0.5;exitY=0;exitDx=0;exitDy=0;entryX=0.5;entryY=1;entryDx=0;entryDy=0;" edge="1" parent="WIyWlLk6GJQsqaUBKTNV-1" source="e9ITBhB58Za4XSSi68RV-21" target="e9ITBhB58Za4XSSi68RV-22">
          <mxGeometry relative="1" as="geometry" />
        </mxCell>
        <mxCell id="e9ITBhB58Za4XSSi68RV-21" value="&lt;font style=&quot;font-size: 14px;&quot;&gt;lcb-dev&lt;/font&gt;" style="rounded=1;whiteSpace=wrap;html=1;" vertex="1" parent="WIyWlLk6GJQsqaUBKTNV-1">
          <mxGeometry x="330" y="220" width="80" height="30" as="geometry" />
        </mxCell>
        <mxCell id="e9ITBhB58Za4XSSi68RV-26" style="edgeStyle=orthogonalEdgeStyle;rounded=0;orthogonalLoop=1;jettySize=auto;html=1;exitX=0.5;exitY=0;exitDx=0;exitDy=0;entryX=0.5;entryY=1;entryDx=0;entryDy=0;" edge="1" parent="WIyWlLk6GJQsqaUBKTNV-1" source="e9ITBhB58Za4XSSi68RV-22" target="e9ITBhB58Za4XSSi68RV-18">
          <mxGeometry relative="1" as="geometry" />
        </mxCell>
        <mxCell id="e9ITBhB58Za4XSSi68RV-22" value="merge" style="rhombus;whiteSpace=wrap;html=1;" vertex="1" parent="WIyWlLk6GJQsqaUBKTNV-1">
          <mxGeometry x="330" y="130" width="80" height="50" as="geometry" />
        </mxCell>
        <mxCell id="e9ITBhB58Za4XSSi68RV-27" value="&lt;span style=&quot;font-size: 14px;&quot;&gt;&lt;b&gt;陈佳浩&lt;/b&gt;&lt;/span&gt;" style="text;html=1;align=center;verticalAlign=middle;resizable=0;points=[];autosize=1;strokeColor=none;fillColor=none;" vertex="1" parent="WIyWlLk6GJQsqaUBKTNV-1">
          <mxGeometry x="360" y="100" width="70" height="30" as="geometry" />
        </mxCell>
        <mxCell id="e9ITBhB58Za4XSSi68RV-33" style="edgeStyle=orthogonalEdgeStyle;rounded=0;orthogonalLoop=1;jettySize=auto;html=1;exitX=0.5;exitY=0;exitDx=0;exitDy=0;entryX=0.5;entryY=1;entryDx=0;entryDy=0;" edge="1" parent="WIyWlLk6GJQsqaUBKTNV-1" source="e9ITBhB58Za4XSSi68RV-28" target="e9ITBhB58Za4XSSi68RV-20">
          <mxGeometry relative="1" as="geometry" />
        </mxCell>
        <mxCell id="e9ITBhB58Za4XSSi68RV-28" value="merge" style="rhombus;whiteSpace=wrap;html=1;" vertex="1" parent="WIyWlLk6GJQsqaUBKTNV-1">
          <mxGeometry x="580" y="290" width="80" height="50" as="geometry" />
        </mxCell>
        <mxCell id="e9ITBhB58Za4XSSi68RV-32" style="edgeStyle=orthogonalEdgeStyle;rounded=0;orthogonalLoop=1;jettySize=auto;html=1;exitX=0.5;exitY=0;exitDx=0;exitDy=0;entryX=0.5;entryY=1;entryDx=0;entryDy=0;" edge="1" parent="WIyWlLk6GJQsqaUBKTNV-1" source="e9ITBhB58Za4XSSi68RV-29" target="e9ITBhB58Za4XSSi68RV-21">
          <mxGeometry relative="1" as="geometry" />
        </mxCell>
        <mxCell id="e9ITBhB58Za4XSSi68RV-29" value="merge" style="rhombus;whiteSpace=wrap;html=1;" vertex="1" parent="WIyWlLk6GJQsqaUBKTNV-1">
          <mxGeometry x="330" y="290" width="80" height="50" as="geometry" />
        </mxCell>
        <mxCell id="e9ITBhB58Za4XSSi68RV-31" style="edgeStyle=orthogonalEdgeStyle;rounded=0;orthogonalLoop=1;jettySize=auto;html=1;exitX=0.5;exitY=0;exitDx=0;exitDy=0;entryX=0.5;entryY=1;entryDx=0;entryDy=0;" edge="1" parent="WIyWlLk6GJQsqaUBKTNV-1" source="e9ITBhB58Za4XSSi68RV-30" target="e9ITBhB58Za4XSSi68RV-19">
          <mxGeometry relative="1" as="geometry" />
        </mxCell>
        <mxCell id="e9ITBhB58Za4XSSi68RV-30" value="merge" style="rhombus;whiteSpace=wrap;html=1;" vertex="1" parent="WIyWlLk6GJQsqaUBKTNV-1">
          <mxGeometry x="80" y="290" width="80" height="50" as="geometry" />
        </mxCell>
        <mxCell id="e9ITBhB58Za4XSSi68RV-46" style="edgeStyle=orthogonalEdgeStyle;rounded=0;orthogonalLoop=1;jettySize=auto;html=1;exitX=0.5;exitY=0;exitDx=0;exitDy=0;entryX=0.5;entryY=1;entryDx=0;entryDy=0;" edge="1" parent="WIyWlLk6GJQsqaUBKTNV-1" source="e9ITBhB58Za4XSSi68RV-34" target="e9ITBhB58Za4XSSi68RV-29">
          <mxGeometry relative="1" as="geometry" />
        </mxCell>
        <mxCell id="e9ITBhB58Za4XSSi68RV-34" value="&lt;span style=&quot;font-size: 14px;&quot;&gt;LuChengBin&lt;/span&gt;" style="rounded=1;whiteSpace=wrap;html=1;" vertex="1" parent="WIyWlLk6GJQsqaUBKTNV-1">
          <mxGeometry x="330" y="430" width="80" height="30" as="geometry" />
        </mxCell>
        <mxCell id="e9ITBhB58Za4XSSi68RV-45" style="edgeStyle=orthogonalEdgeStyle;rounded=0;orthogonalLoop=1;jettySize=auto;html=1;exitX=0.5;exitY=0;exitDx=0;exitDy=0;entryX=0;entryY=0.5;entryDx=0;entryDy=0;" edge="1" parent="WIyWlLk6GJQsqaUBKTNV-1" source="e9ITBhB58Za4XSSi68RV-35" target="e9ITBhB58Za4XSSi68RV-29">
          <mxGeometry relative="1" as="geometry" />
        </mxCell>
        <mxCell id="e9ITBhB58Za4XSSi68RV-35" value="&lt;font style=&quot;font-size: 14px;&quot;&gt;LiRuoBing&lt;/font&gt;" style="rounded=1;whiteSpace=wrap;html=1;" vertex="1" parent="WIyWlLk6GJQsqaUBKTNV-1">
          <mxGeometry x="260" y="370" width="80" height="30" as="geometry" />
        </mxCell>
        <mxCell id="e9ITBhB58Za4XSSi68RV-43" style="edgeStyle=orthogonalEdgeStyle;rounded=0;orthogonalLoop=1;jettySize=auto;html=1;exitX=0.5;exitY=0;exitDx=0;exitDy=0;entryX=1;entryY=0.5;entryDx=0;entryDy=0;" edge="1" parent="WIyWlLk6GJQsqaUBKTNV-1" source="e9ITBhB58Za4XSSi68RV-36" target="e9ITBhB58Za4XSSi68RV-30">
          <mxGeometry relative="1" as="geometry" />
        </mxCell>
        <mxCell id="e9ITBhB58Za4XSSi68RV-36" value="&lt;font style=&quot;font-size: 14px;&quot;&gt;LiZiHao&lt;/font&gt;" style="rounded=1;whiteSpace=wrap;html=1;" vertex="1" parent="WIyWlLk6GJQsqaUBKTNV-1">
          <mxGeometry x="160" y="370" width="80" height="30" as="geometry" />
        </mxCell>
        <mxCell id="e9ITBhB58Za4XSSi68RV-41" style="edgeStyle=orthogonalEdgeStyle;rounded=0;orthogonalLoop=1;jettySize=auto;html=1;exitX=0.5;exitY=0;exitDx=0;exitDy=0;entryX=0.5;entryY=1;entryDx=0;entryDy=0;" edge="1" parent="WIyWlLk6GJQsqaUBKTNV-1" source="e9ITBhB58Za4XSSi68RV-37" target="e9ITBhB58Za4XSSi68RV-30">
          <mxGeometry relative="1" as="geometry" />
        </mxCell>
        <mxCell id="e9ITBhB58Za4XSSi68RV-37" value="&lt;font style=&quot;font-size: 14px;&quot;&gt;HanJingXiao&lt;/font&gt;" style="rounded=1;whiteSpace=wrap;html=1;" vertex="1" parent="WIyWlLk6GJQsqaUBKTNV-1">
          <mxGeometry x="80" y="430" width="80" height="30" as="geometry" />
        </mxCell>
        <mxCell id="e9ITBhB58Za4XSSi68RV-42" style="edgeStyle=orthogonalEdgeStyle;rounded=0;orthogonalLoop=1;jettySize=auto;html=1;exitX=0.5;exitY=0;exitDx=0;exitDy=0;entryX=0;entryY=0.5;entryDx=0;entryDy=0;" edge="1" parent="WIyWlLk6GJQsqaUBKTNV-1" source="e9ITBhB58Za4XSSi68RV-38" target="e9ITBhB58Za4XSSi68RV-30">
          <mxGeometry relative="1" as="geometry" />
        </mxCell>
        <mxCell id="e9ITBhB58Za4XSSi68RV-38" value="&lt;font style=&quot;font-size: 14px;&quot;&gt;LiTong&lt;/font&gt;" style="rounded=1;whiteSpace=wrap;html=1;" vertex="1" parent="WIyWlLk6GJQsqaUBKTNV-1">
          <mxGeometry x="10" y="370" width="80" height="30" as="geometry" />
        </mxCell>
        <mxCell id="e9ITBhB58Za4XSSi68RV-47" style="edgeStyle=orthogonalEdgeStyle;rounded=0;orthogonalLoop=1;jettySize=auto;html=1;exitX=0.5;exitY=0;exitDx=0;exitDy=0;entryX=1;entryY=0.5;entryDx=0;entryDy=0;" edge="1" parent="WIyWlLk6GJQsqaUBKTNV-1" source="e9ITBhB58Za4XSSi68RV-40" target="e9ITBhB58Za4XSSi68RV-29">
          <mxGeometry relative="1" as="geometry" />
        </mxCell>
        <mxCell id="e9ITBhB58Za4XSSi68RV-40" value="&lt;font style=&quot;font-size: 14px;&quot;&gt;LiuJiaPeng&lt;/font&gt;" style="rounded=1;whiteSpace=wrap;html=1;" vertex="1" parent="WIyWlLk6GJQsqaUBKTNV-1">
          <mxGeometry x="400" y="370" width="80" height="30" as="geometry" />
        </mxCell>
        <mxCell id="e9ITBhB58Za4XSSi68RV-44" value="&lt;b&gt;&lt;font style=&quot;font-size: 14px;&quot;&gt;韩敬霄&lt;/font&gt;&lt;/b&gt;" style="text;html=1;align=center;verticalAlign=middle;resizable=0;points=[];autosize=1;strokeColor=none;fillColor=none;" vertex="1" parent="WIyWlLk6GJQsqaUBKTNV-1">
          <mxGeometry x="120" y="260" width="70" height="30" as="geometry" />
        </mxCell>
        <mxCell id="e9ITBhB58Za4XSSi68RV-53" style="edgeStyle=orthogonalEdgeStyle;rounded=0;orthogonalLoop=1;jettySize=auto;html=1;exitX=0.5;exitY=0;exitDx=0;exitDy=0;entryX=0.5;entryY=1;entryDx=0;entryDy=0;" edge="1" parent="WIyWlLk6GJQsqaUBKTNV-1" source="e9ITBhB58Za4XSSi68RV-48" target="e9ITBhB58Za4XSSi68RV-28">
          <mxGeometry relative="1" as="geometry" />
        </mxCell>
        <mxCell id="e9ITBhB58Za4XSSi68RV-48" value="&lt;span style=&quot;font-size: 14px;&quot;&gt;ZhuYuNing&lt;/span&gt;" style="rounded=1;whiteSpace=wrap;html=1;" vertex="1" parent="WIyWlLk6GJQsqaUBKTNV-1">
          <mxGeometry x="580" y="430" width="80" height="30" as="geometry" />
        </mxCell>
        <mxCell id="e9ITBhB58Za4XSSi68RV-51" style="edgeStyle=orthogonalEdgeStyle;rounded=0;orthogonalLoop=1;jettySize=auto;html=1;exitX=0.5;exitY=0;exitDx=0;exitDy=0;entryX=0;entryY=0.5;entryDx=0;entryDy=0;" edge="1" parent="WIyWlLk6GJQsqaUBKTNV-1" source="e9ITBhB58Za4XSSi68RV-49" target="e9ITBhB58Za4XSSi68RV-28">
          <mxGeometry relative="1" as="geometry" />
        </mxCell>
        <mxCell id="e9ITBhB58Za4XSSi68RV-49" value="&lt;font style=&quot;font-size: 14px;&quot;&gt;DuanPeiYu&lt;/font&gt;" style="rounded=1;whiteSpace=wrap;html=1;" vertex="1" parent="WIyWlLk6GJQsqaUBKTNV-1">
          <mxGeometry x="510" y="370" width="80" height="30" as="geometry" />
        </mxCell>
        <mxCell id="e9ITBhB58Za4XSSi68RV-52" style="edgeStyle=orthogonalEdgeStyle;rounded=0;orthogonalLoop=1;jettySize=auto;html=1;exitX=0.5;exitY=0;exitDx=0;exitDy=0;entryX=1;entryY=0.5;entryDx=0;entryDy=0;" edge="1" parent="WIyWlLk6GJQsqaUBKTNV-1" source="e9ITBhB58Za4XSSi68RV-50" target="e9ITBhB58Za4XSSi68RV-28">
          <mxGeometry relative="1" as="geometry" />
        </mxCell>
        <mxCell id="e9ITBhB58Za4XSSi68RV-50" value="&lt;font style=&quot;font-size: 14px;&quot;&gt;YangXuanHe&lt;/font&gt;" style="rounded=1;whiteSpace=wrap;html=1;" vertex="1" parent="WIyWlLk6GJQsqaUBKTNV-1">
          <mxGeometry x="650" y="370" width="80" height="30" as="geometry" />
        </mxCell>
        <mxCell id="e9ITBhB58Za4XSSi68RV-54" value="&lt;b&gt;&lt;font style=&quot;font-size: 14px;&quot;&gt;朱雨凝&lt;/font&gt;&lt;/b&gt;" style="text;html=1;align=center;verticalAlign=middle;resizable=0;points=[];autosize=1;strokeColor=none;fillColor=none;" vertex="1" parent="WIyWlLk6GJQsqaUBKTNV-1">
          <mxGeometry x="620" y="260" width="70" height="30" as="geometry" />
        </mxCell>
        <mxCell id="e9ITBhB58Za4XSSi68RV-55" value="&lt;span style=&quot;font-size: 14px;&quot;&gt;&lt;b&gt;陆诚彬&lt;/b&gt;&lt;/span&gt;" style="text;html=1;align=center;verticalAlign=middle;resizable=0;points=[];autosize=1;strokeColor=none;fillColor=none;" vertex="1" parent="WIyWlLk6GJQsqaUBKTNV-1">
          <mxGeometry x="370" y="260" width="70" height="30" as="geometry" />
        </mxCell>
      </root>
    </mxGraphModel>
  </diagram>
</mxfile>
